<svg width="63" height="65" viewBox="0 0 63 65" fill="none" xmlns="http://www.w3.org/2000/svg">
<rect width="63" height="65" fill="white"/>
<path d="M21.724 21.306C24.58 21.306 26.68 21.81 28.024 22.818C29.368 23.798 30.04 25.1 30.04 26.724C30.04 28.18 29.606 29.496 28.738 30.672C27.87 31.82 26.708 32.786 25.252 33.57C23.824 34.354 22.256 34.942 20.548 35.334C23.32 35.642 25.294 36.426 26.47 37.686C27.674 38.918 28.276 40.374 28.276 42.054C28.276 43.566 27.912 44.882 27.184 46.002C26.484 47.094 25.518 48.018 24.286 48.774C23.082 49.502 21.71 50.062 20.17 50.454C18.63 50.818 17.02 51 15.34 51C14.332 51 13.254 50.986 12.106 50.958C10.986 50.902 9.642 50.874 8.074 50.874C7.402 50.874 6.716 50.888 6.016 50.916C5.316 50.916 4.658 50.93 4.042 50.958C3.426 50.958 2.908 50.972 2.488 51L2.656 50.16C3.608 50.104 4.35 49.992 4.882 49.824C5.414 49.656 5.834 49.32 6.142 48.816C6.45 48.312 6.73 47.556 6.982 46.548L12.526 25.716C12.722 24.876 12.834 24.204 12.862 23.7C12.89 23.168 12.694 22.776 12.274 22.524C11.882 22.244 11.14 22.104 10.048 22.104L10.258 21.264C10.678 21.292 11.182 21.32 11.77 21.348C12.386 21.348 13.03 21.362 13.702 21.39C14.402 21.39 15.074 21.39 15.718 21.39C16.81 21.39 17.832 21.376 18.784 21.348C19.736 21.32 20.716 21.306 21.724 21.306ZM13.786 35.922L13.954 35.208H17.146C18.798 35.208 20.212 34.816 21.388 34.032C22.592 33.22 23.502 32.17 24.118 30.882C24.762 29.566 25.084 28.18 25.084 26.724C25.084 25.212 24.762 24.064 24.118 23.28C23.502 22.496 22.452 22.104 20.968 22.104C19.876 22.104 19.092 22.3 18.616 22.692C18.168 23.056 17.79 23.854 17.482 25.086L11.812 46.548C11.616 47.304 11.504 47.948 11.476 48.48C11.448 49.012 11.602 49.404 11.938 49.656C12.274 49.908 12.89 50.034 13.786 50.034C15.998 50.034 17.79 49.684 19.162 48.984C20.534 48.256 21.542 47.248 22.186 45.96C22.83 44.644 23.152 43.118 23.152 41.382C23.152 40.262 22.956 39.296 22.564 38.484C22.2 37.672 21.598 37.042 20.758 36.594C19.946 36.146 18.868 35.922 17.524 35.922H13.786Z" fill="#61564E"/>
<ellipse cx="45.3227" cy="18.4915" rx="12.6787" ry="13.7137" transform="rotate(21.8361 45.3227 18.4915)" fill="#FF9345"/>
<path d="M52.2468 9.55859C53.5755 10.6485 56.0687 14.212 55.4119 19.7468" stroke="#FFEBDD" stroke-width="1.5" stroke-linecap="round"/>
<path d="M40.847 30.357C36.807 36.729 38.5224 53.9554 45.448 49.4831C51.841 45.3548 28.8352 29.7251 29.0092 59.8997" stroke="#F9DAC4" stroke-width="1.5" stroke-linecap="round"/>
<path d="M42.3392 25.9379L42.8437 34.9206L35.7715 32.0868L42.3392 25.9379Z" fill="#FF9345"/>
</svg>
