<svg width="232" height="78" viewBox="0 0 232 78" fill="none" xmlns="http://www.w3.org/2000/svg">
<rect width="232" height="78" fill="white"/>
<path d="M31.724 24.306C34.58 24.306 36.68 24.81 38.024 25.818C39.368 26.798 40.04 28.1 40.04 29.724C40.04 31.18 39.606 32.496 38.738 33.672C37.87 34.82 36.708 35.786 35.252 36.57C33.824 37.354 32.256 37.942 30.548 38.334C33.32 38.642 35.294 39.426 36.47 40.686C37.674 41.918 38.276 43.374 38.276 45.054C38.276 46.566 37.912 47.882 37.184 49.002C36.484 50.094 35.518 51.018 34.286 51.774C33.082 52.502 31.71 53.062 30.17 53.454C28.63 53.818 27.02 54 25.34 54C24.332 54 23.254 53.986 22.106 53.958C20.986 53.902 19.642 53.874 18.074 53.874C17.402 53.874 16.716 53.888 16.016 53.916C15.316 53.916 14.658 53.93 14.042 53.958C13.426 53.958 12.908 53.972 12.488 54L12.656 53.16C13.608 53.104 14.35 52.992 14.882 52.824C15.414 52.656 15.834 52.32 16.142 51.816C16.45 51.312 16.73 50.556 16.982 49.548L22.526 28.716C22.722 27.876 22.834 27.204 22.862 26.7C22.89 26.168 22.694 25.776 22.274 25.524C21.882 25.244 21.14 25.104 20.048 25.104L20.258 24.264C20.678 24.292 21.182 24.32 21.77 24.348C22.386 24.348 23.03 24.362 23.702 24.39C24.402 24.39 25.074 24.39 25.718 24.39C26.81 24.39 27.832 24.376 28.784 24.348C29.736 24.32 30.716 24.306 31.724 24.306ZM23.786 38.922L23.954 38.208H27.146C28.798 38.208 30.212 37.816 31.388 37.032C32.592 36.22 33.502 35.17 34.118 33.882C34.762 32.566 35.084 31.18 35.084 29.724C35.084 28.212 34.762 27.064 34.118 26.28C33.502 25.496 32.452 25.104 30.968 25.104C29.876 25.104 29.092 25.3 28.616 25.692C28.168 26.056 27.79 26.854 27.482 28.086L21.812 49.548C21.616 50.304 21.504 50.948 21.476 51.48C21.448 52.012 21.602 52.404 21.938 52.656C22.274 52.908 22.89 53.034 23.786 53.034C25.998 53.034 27.79 52.684 29.162 51.984C30.534 51.256 31.542 50.248 32.186 48.96C32.83 47.644 33.152 46.118 33.152 44.382C33.152 43.262 32.956 42.296 32.564 41.484C32.2 40.672 31.598 40.042 30.758 39.594C29.946 39.146 28.868 38.922 27.524 38.922H23.786ZM49.1304 39.468L49.3824 38.628H56.9844L56.7744 39.468H49.1304ZM53.4564 38.628C54.3524 38.628 55.0944 38.46 55.6824 38.124C56.2704 37.76 56.7604 37.298 57.1524 36.738C57.5724 36.178 57.9224 35.59 58.2024 34.974C58.4824 34.358 58.7344 33.784 58.9584 33.252H59.9244C59.4204 34.736 59.0704 35.898 58.8744 36.738C58.6784 37.55 58.4824 38.32 58.2864 39.048C58.1464 39.524 58.0204 40.014 57.9084 40.518C57.7964 41.022 57.6564 41.61 57.4884 42.282C57.3484 42.954 57.1804 43.808 56.9844 44.844H56.0184C56.0744 44.2 56.1164 43.57 56.1444 42.954C56.2004 42.31 56.1584 41.736 56.0184 41.232C55.8784 40.7 55.5844 40.28 55.1364 39.972C54.7164 39.636 54.0584 39.468 53.1624 39.468L53.4564 38.628ZM64.6284 31.824C64.8524 30.172 64.9084 28.87 64.7964 27.918C64.6844 26.938 64.2924 26.252 63.6204 25.86C62.9764 25.44 61.9404 25.23 60.5124 25.23H58.0344C57.1104 25.23 56.3824 25.314 55.8504 25.482C55.3464 25.622 54.9404 25.944 54.6324 26.448C54.3244 26.924 54.0304 27.68 53.7504 28.716L48.1644 49.548C47.8844 50.556 47.7584 51.312 47.7864 51.816C47.8424 52.32 48.0944 52.656 48.5424 52.824C48.9904 52.964 49.6904 53.034 50.6424 53.034H53.2044C54.8844 53.034 56.2424 52.796 57.2784 52.32C58.3144 51.844 59.1964 51.074 59.9244 50.01C60.6804 48.918 61.4084 47.448 62.1084 45.6H63.0744C62.9344 45.964 62.7804 46.412 62.6124 46.944C62.4444 47.476 62.2904 48.036 62.1504 48.624C62.0104 49.156 61.8284 49.926 61.6044 50.934C61.3804 51.914 61.1984 52.936 61.0584 54C59.6304 53.944 58.0204 53.916 56.2284 53.916C54.4364 53.888 52.8404 53.874 51.4404 53.874C50.7964 53.874 49.9704 53.874 48.9624 53.874C47.9824 53.874 46.9044 53.888 45.7284 53.916C44.5524 53.916 43.3624 53.93 42.1584 53.958C40.9824 53.958 39.8624 53.972 38.7984 54L39.0084 53.16C39.9604 53.104 40.7024 52.992 41.2344 52.824C41.7664 52.656 42.1724 52.32 42.4524 51.816C42.7604 51.312 43.0544 50.556 43.3344 49.548L48.9204 28.716C49.2004 27.68 49.3124 26.924 49.2564 26.448C49.2284 25.944 48.9904 25.608 48.5424 25.44C48.1224 25.244 47.4364 25.132 46.4844 25.104L46.6944 24.264C47.7584 24.292 48.8784 24.32 50.0544 24.348C51.2584 24.348 52.4484 24.362 53.6244 24.39C54.8004 24.39 55.8784 24.39 56.8584 24.39C57.8664 24.39 58.6924 24.39 59.3364 24.39C60.5964 24.39 61.9964 24.39 63.5364 24.39C65.1044 24.362 66.5184 24.32 67.7784 24.264C67.4144 25.244 67.0924 26.182 66.8124 27.078C66.5324 27.946 66.3224 28.66 66.1824 29.22C66.0424 29.724 65.9164 30.214 65.8044 30.69C65.7204 31.138 65.6504 31.516 65.5944 31.824H64.6284ZM90.2162 23.97C89.9362 24.698 89.5582 25.762 89.0822 27.162C88.6062 28.534 88.1582 30.326 87.7382 32.538H86.8982C86.9822 32.146 87.0382 31.74 87.0662 31.32C87.1222 30.9 87.1502 30.508 87.1502 30.144C87.1502 29.108 86.9262 28.17 86.4782 27.33C86.0582 26.462 85.4142 25.79 84.5462 25.314C83.6782 24.81 82.5442 24.558 81.1442 24.558C79.5762 24.558 78.2462 24.964 77.1542 25.776C76.0902 26.588 75.5582 27.876 75.5582 29.64C75.5582 30.676 75.8102 31.656 76.3142 32.58C76.8182 33.476 77.4482 34.344 78.2042 35.184C78.9882 36.024 79.8282 36.864 80.7242 37.704C81.6202 38.544 82.4602 39.412 83.2442 40.308C84.0282 41.176 84.6722 42.1 85.1762 43.08C85.6802 44.06 85.9322 45.138 85.9322 46.314C85.9322 47.77 85.5822 49.03 84.8822 50.094C84.2102 51.13 83.3282 51.984 82.2362 52.656C81.1722 53.3 79.9962 53.776 78.7082 54.084C77.4482 54.42 76.2022 54.588 74.9702 54.588C73.7942 54.588 72.8002 54.49 71.9882 54.294C71.2042 54.098 70.5462 53.846 70.0142 53.538C69.4822 53.23 69.0062 52.936 68.5862 52.656C68.2782 52.432 67.9842 52.278 67.7042 52.194C67.4522 52.082 67.2422 52.026 67.0742 52.026C66.7102 52.026 66.4022 52.208 66.1502 52.572C65.9262 52.936 65.6602 53.51 65.3522 54.294H64.5122C64.7642 53.678 65.0302 52.964 65.3102 52.152C65.5902 51.34 65.8982 50.304 66.2342 49.044C66.5702 47.756 66.9482 46.146 67.3682 44.214H68.2082C68.0682 44.774 67.9562 45.334 67.8722 45.894C67.8162 46.454 67.8022 47.014 67.8302 47.574C67.9142 49.506 68.5022 51.018 69.5942 52.11C70.7142 53.174 72.4082 53.706 74.6762 53.706C76.5242 53.706 77.9662 53.3 79.0022 52.488C80.0662 51.676 80.5982 50.43 80.5982 48.75C80.5982 47.574 80.3602 46.524 79.8842 45.6C79.4362 44.648 78.8482 43.766 78.1202 42.954C77.4202 42.114 76.6642 41.302 75.8522 40.518C75.0402 39.734 74.2702 38.922 73.5422 38.082C72.8422 37.242 72.2682 36.318 71.8202 35.31C71.3722 34.302 71.1482 33.182 71.1482 31.95C71.1482 30.578 71.4282 29.374 71.9882 28.338C72.5482 27.302 73.2902 26.448 74.2142 25.776C75.1382 25.076 76.1602 24.558 77.2802 24.222C78.4282 23.858 79.5762 23.676 80.7242 23.676C82.0682 23.676 83.1882 23.844 84.0842 24.18C85.0082 24.488 85.8482 24.922 86.6042 25.482C86.9122 25.706 87.1782 25.888 87.4022 26.028C87.6542 26.14 87.8502 26.196 87.9902 26.196C88.3822 26.196 88.8442 25.454 89.3762 23.97H90.2162ZM120.726 19.098C121.51 19.098 122.098 19.336 122.49 19.812C122.882 20.26 123.078 20.806 123.078 21.45C123.078 22.178 122.868 22.822 122.448 23.382C122.028 23.942 121.482 24.404 120.81 24.768C120.054 25.216 119.102 25.552 117.954 25.776C116.834 26 115.532 26.112 114.048 26.112C112.9 26.112 111.738 26.056 110.562 25.944C109.414 25.832 108.252 25.692 107.076 25.524C105.928 25.356 104.78 25.216 103.632 25.104C102.512 24.992 101.434 24.936 100.398 24.936C99.5023 24.936 98.6063 24.978 97.7103 25.062C96.8143 25.146 96.1283 25.342 95.6523 25.65C96.0443 25.902 96.3663 26.294 96.6183 26.826C96.8703 27.33 96.9963 27.862 96.9963 28.422C96.9963 29.094 96.7863 29.724 96.3663 30.312C95.9463 30.9 95.3303 31.194 94.5183 31.194C93.7903 31.194 93.2303 30.956 92.8383 30.48C92.4743 30.004 92.2923 29.416 92.2923 28.716C92.2923 28.1 92.4463 27.47 92.7543 26.826C93.0903 26.154 93.7343 25.594 94.6863 25.146C95.3303 24.838 96.0163 24.614 96.7443 24.474C97.5003 24.334 98.2003 24.25 98.8443 24.222C99.4883 24.194 99.9783 24.18 100.314 24.18C101.994 24.18 103.604 24.278 105.144 24.474C106.684 24.642 108.21 24.824 109.722 25.02C111.234 25.188 112.774 25.272 114.342 25.272C115.574 25.272 116.61 25.202 117.45 25.062C118.29 24.922 119.046 24.684 119.718 24.348L119.634 24.642C119.326 24.362 119.018 23.97 118.71 23.466C118.402 22.962 118.248 22.402 118.248 21.786C118.248 21.086 118.458 20.47 118.878 19.938C119.326 19.378 119.942 19.098 120.726 19.098ZM105.774 25.02C105.774 25.02 105.928 25.034 106.236 25.062C106.544 25.09 106.922 25.132 107.37 25.188C107.846 25.244 108.322 25.3 108.798 25.356C109.274 25.412 109.666 25.454 109.974 25.482C110.282 25.51 110.436 25.524 110.436 25.524L104.178 49.128C103.898 50.164 103.786 50.976 103.842 51.564C103.898 52.124 104.192 52.53 104.724 52.782C105.284 53.006 106.152 53.132 107.328 53.16L107.16 54C106.376 53.944 105.368 53.916 104.136 53.916C102.932 53.888 101.686 53.874 100.398 53.874C99.1103 53.874 97.8643 53.888 96.6603 53.916C95.4843 53.916 94.5463 53.944 93.8463 54L94.0143 53.16C95.1903 53.104 96.1003 52.964 96.7443 52.74C97.4163 52.488 97.9343 52.082 98.2983 51.522C98.6903 50.934 99.0403 50.136 99.3483 49.128L105.774 25.02ZM114.481 47.448C113.501 48.82 112.941 49.926 112.801 50.766C112.661 51.578 112.871 52.18 113.431 52.572C113.991 52.936 114.845 53.132 115.993 53.16L115.783 54C114.859 53.944 113.977 53.916 113.137 53.916C112.297 53.888 111.499 53.874 110.743 53.874C110.071 53.874 109.511 53.888 109.063 53.916C108.587 53.916 108.125 53.944 107.677 54L107.887 53.16C108.307 53.048 108.741 52.852 109.189 52.572C109.609 52.292 110.085 51.886 110.617 51.354C111.121 50.822 111.667 50.122 112.255 49.254L130.189 24.054C130.385 24.054 130.567 24.054 130.735 24.054C130.931 24.054 131.127 24.054 131.323 24.054L133.003 50.472C133.087 51.48 133.339 52.18 133.759 52.572C134.207 52.936 134.641 53.132 135.061 53.16L134.893 54C134.277 53.944 133.493 53.916 132.541 53.916C131.589 53.888 130.679 53.874 129.811 53.874C128.719 53.874 127.683 53.888 126.703 53.916C125.723 53.916 124.939 53.944 124.351 54L124.519 53.16C125.863 53.104 126.815 52.866 127.375 52.446C127.935 51.998 128.187 51.06 128.131 49.632L127.039 29.346L127.711 28.8L114.481 47.448ZM118.051 41.904H130.315L129.979 42.744H117.295L118.051 41.904ZM149.116 49.548C148.864 50.556 148.766 51.312 148.822 51.816C148.906 52.32 149.172 52.656 149.62 52.824C150.096 52.992 150.81 53.104 151.762 53.16L151.552 54C151.104 53.972 150.558 53.958 149.914 53.958C149.27 53.93 148.584 53.916 147.856 53.916C147.128 53.888 146.4 53.874 145.672 53.874C144.496 53.874 143.376 53.888 142.312 53.916C141.276 53.916 140.422 53.944 139.75 54L139.96 53.16C140.912 53.104 141.654 52.992 142.186 52.824C142.718 52.656 143.138 52.32 143.446 51.816C143.754 51.312 144.034 50.556 144.286 49.548L147.184 38.04L149.074 40.686L150.964 39.888L152.392 36.528L149.116 49.548ZM163.228 24.516C162.78 24.544 162.36 24.642 161.968 24.81C161.576 24.978 161.198 25.202 160.834 25.482C159.966 26.098 158.944 27.134 157.768 28.59C156.592 30.018 155.374 31.894 154.114 34.218C152.882 36.514 151.692 39.328 150.544 42.66L146.974 42.87C146.862 41.582 146.708 40.196 146.512 38.712C146.344 37.2 146.12 35.716 145.84 34.26C145.588 32.804 145.266 31.474 144.874 30.27C144.51 29.038 144.076 28.058 143.572 27.33C143.068 26.602 142.48 26.238 141.808 26.238C141.332 26.238 140.926 26.406 140.59 26.742C140.282 27.05 140.03 27.54 139.834 28.212L138.742 31.404C138.742 31.404 138.588 31.404 138.28 31.404C137.972 31.404 137.818 31.404 137.818 31.404L139.12 27.624C139.568 26.252 140.142 25.258 140.842 24.642C141.57 23.998 142.564 23.676 143.824 23.676C145.476 23.676 146.778 24.292 147.73 25.524C148.682 26.728 149.41 28.464 149.914 30.732C150.418 33 150.838 35.688 151.174 38.796C152.21 36.108 153.372 33.728 154.66 31.656C155.948 29.556 157.292 27.792 158.692 26.364C159.336 25.692 160.092 25.076 160.96 24.516C161.828 23.956 162.724 23.676 163.648 23.676C164.712 23.676 165.468 23.97 165.916 24.558C166.364 25.146 166.574 25.818 166.546 26.574C166.518 27.274 166.252 27.96 165.748 28.632C165.244 29.276 164.53 29.598 163.606 29.598C162.878 29.598 162.346 29.388 162.01 28.968C161.702 28.548 161.562 28.072 161.59 27.54C161.618 26.924 161.814 26.364 162.178 25.86C162.542 25.328 162.99 24.908 163.522 24.6C163.494 24.572 163.452 24.558 163.396 24.558C163.34 24.53 163.284 24.516 163.228 24.516ZM186.975 23.97C186.695 24.698 186.317 25.762 185.841 27.162C185.365 28.534 184.917 30.326 184.497 32.538H183.657C183.741 32.146 183.797 31.74 183.825 31.32C183.881 30.9 183.909 30.508 183.909 30.144C183.909 29.108 183.685 28.17 183.237 27.33C182.817 26.462 182.173 25.79 181.305 25.314C180.437 24.81 179.303 24.558 177.903 24.558C176.335 24.558 175.005 24.964 173.913 25.776C172.849 26.588 172.317 27.876 172.317 29.64C172.317 30.676 172.569 31.656 173.073 32.58C173.577 33.476 174.207 34.344 174.963 35.184C175.747 36.024 176.587 36.864 177.483 37.704C178.379 38.544 179.219 39.412 180.003 40.308C180.787 41.176 181.431 42.1 181.935 43.08C182.439 44.06 182.691 45.138 182.691 46.314C182.691 47.77 182.341 49.03 181.641 50.094C180.969 51.13 180.087 51.984 178.995 52.656C177.931 53.3 176.755 53.776 175.467 54.084C174.207 54.42 172.961 54.588 171.729 54.588C170.553 54.588 169.559 54.49 168.747 54.294C167.963 54.098 167.305 53.846 166.773 53.538C166.241 53.23 165.765 52.936 165.345 52.656C165.037 52.432 164.743 52.278 164.463 52.194C164.211 52.082 164.001 52.026 163.833 52.026C163.469 52.026 163.161 52.208 162.909 52.572C162.685 52.936 162.419 53.51 162.111 54.294H161.271C161.523 53.678 161.789 52.964 162.069 52.152C162.349 51.34 162.657 50.304 162.993 49.044C163.329 47.756 163.707 46.146 164.127 44.214H164.967C164.827 44.774 164.715 45.334 164.631 45.894C164.575 46.454 164.561 47.014 164.589 47.574C164.673 49.506 165.261 51.018 166.353 52.11C167.473 53.174 169.167 53.706 171.435 53.706C173.283 53.706 174.725 53.3 175.761 52.488C176.825 51.676 177.357 50.43 177.357 48.75C177.357 47.574 177.119 46.524 176.643 45.6C176.195 44.648 175.607 43.766 174.879 42.954C174.179 42.114 173.423 41.302 172.611 40.518C171.799 39.734 171.029 38.922 170.301 38.082C169.601 37.242 169.027 36.318 168.579 35.31C168.131 34.302 167.907 33.182 167.907 31.95C167.907 30.578 168.187 29.374 168.747 28.338C169.307 27.302 170.049 26.448 170.973 25.776C171.897 25.076 172.919 24.558 174.039 24.222C175.187 23.858 176.335 23.676 177.483 23.676C178.827 23.676 179.947 23.844 180.843 24.18C181.767 24.488 182.607 24.922 183.363 25.482C183.671 25.706 183.937 25.888 184.161 26.028C184.413 26.14 184.609 26.196 184.749 26.196C185.141 26.196 185.603 25.454 186.135 23.97H186.975Z" fill="#61564E"/>
<ellipse cx="205.919" cy="21.429" rx="13.3933" ry="14.4867" transform="rotate(21.8361 205.919 21.429)" fill="#FF9345"/>
<path d="M213.234 11.9922C214.637 13.1435 217.271 16.9079 216.577 22.7546" stroke="#FFEBDD" stroke-width="2" stroke-linecap="round"/>
<path d="M201.191 33.9628C196.923 40.694 198.735 58.8914 206.051 54.1669C212.805 49.8059 188.502 33.2953 188.686 65.1706" stroke="#F9DAC4" stroke-width="2" stroke-linecap="round"/>
<path d="M202.767 29.2947L203.3 38.7838L195.829 35.7902L202.767 29.2947Z" fill="#FF9345"/>
</svg>
